<?xml version="1.0" encoding="utf-8"?>
<!-- Generator: Adobe Illustrator 28.0.0, SVG Export Plug-In . SVG Version: 6.00 Build 0)  -->
<svg version="1.1" id="Capa_1" xmlns="http://www.w3.org/2000/svg" xmlns:xlink="http://www.w3.org/1999/xlink" x="0px" y="0px"
	 viewBox="0 0 543.12 523.19" style="enable-background:new 0 0 543.12 523.19;" xml:space="preserve">
<style type="text/css">
	.st0{fill:#FFFFFF;}
</style>
<g>
	<g>
		<path class="st0" d="M361.59,154.57c-1.87-0.83-2.29-3.4-0.76-4.78c52.9-49.01,108.43-94.7,166.66-137.06
			c1.94-1.39,3.05-0.9,3.26,1.46c7.28,73.35-2.63,155.08-48.18,215.81c-0.42,0.55-1.11,0.69-1.73,0.35
			c-0.55-0.28-0.83-0.97-0.62-1.59c15.74-47.97,28.91-96.57,39.38-145.86c0.9-4.23,0.76-8.25-0.28-12.2
			c-0.62-2.22-1.32-2.22-2.01-0.07L464.88,227.3c-0.83,2.5-0.21,4.58,1.87,6.17c43.61,33.83,90.47,80.14,72.38,140.59
			c-9.01,30.16-22.12,57.68-39.31,82.71c-55.95,81.53-176.85,72.31-259.9,53.87c-0.65-0.18-111.98-27.1-152.05-34.67
			c-8.08-1.53-16.41-0.97-24.22,1.6c-19.86,6.54-43.92,11.99-59.21,18.5c-0.07,0.03-0.13-0.05-0.07-0.1
			c2.78-2.72,28.78-28.52,23.73-35.83c-1.74-2.53-22.39,10.54-28.02,12.75c-0.07,0.03-0.11-0.06-0.06-0.11
			c16.67-16.81,29.33-38.26,34.92-61.24c0.76-3.12-1.73-6.1-4.99-5.96c0,0-5.46-1.2-10.26-1.18c-0.32,0-0.48-0.37-0.27-0.6
			c19.85-22.41,32.34-42.05,40.38-70.49c8.94-31.68,22.91-58.33,12.78-64.19c-6.73-3.13-5.59-13.85-4.79-27.97L91.7,3.03
			c0.42-3.12,1.94-3.81,4.58-2.15C162.21,42.4,222.52,90.93,277.15,146.6c1.8,1.87,3.95,2.98,6.52,3.4
			c46.66,7.42,90.47,22.81,131.44,46.1c10.94,6.2,13.49,6.08,7.64-0.39c-2.32-2.58-4.9-4.89-7.67-6.99
			C406.02,181.84,381.39,163.73,361.59,154.57z M238.29,193.65L132.78,52.01c-1.27-1.7-3.86,0.07-2.74,1.87l93.24,150.01
			c2.77,4.46,8.73,5.65,13,2.6l0,0C240.43,203.53,241.34,197.74,238.29,193.65z M505.91,301.01c-29.08,16.78-50.87,47-41.23,82.76
			c0.84,3.26,4.71,4.78,7.67,3.04c30.82-18.68,43.58-46.54,38.27-83.51C510.16,300.25,508.57,299.49,505.91,301.01 M370.13,394
			c-11.02-47.29-53.96-71.01-100.38-65.13c-2.03,0.29-2.68,1.38-2.03,3.26c14.14,43.23,50.26,79.49,96.61,70.79
			C368.46,402.13,371.07,398.07,370.13,394 M419.8,413.57c-2.7,0.51-3.29,4.05-0.84,5.4l30.8,16.96c1.1,0.68,2.53,0.42,3.46-0.59
			l24.72-26.66c1.94-2.02,0.17-5.23-2.53-4.81L419.8,413.57L419.8,413.57z"/>
	</g>
</g>
</svg>
