<?xml version="1.0" encoding="utf-8"?>
<!-- Generator: Adobe Illustrator 28.0.0, SVG Export Plug-In . SVG Version: 6.00 Build 0)  -->
<svg version="1.1" id="Capa_1" xmlns="http://www.w3.org/2000/svg" xmlns:xlink="http://www.w3.org/1999/xlink" x="0px" y="0px"
	 viewBox="0 0 1240.88 388.56" style="enable-background:new 0 0 1240.88 388.56;" xml:space="preserve">
<style type="text/css">
	.st0{fill:#FFFFFF;}
</style>
<g>
	<g>
		<g>
			<path class="st0" d="M268.54,114.8c-1.39-0.62-1.7-2.52-0.57-3.55c39.28-36.4,80.53-70.33,123.77-101.79
				c1.44-1.03,2.27-0.67,2.42,1.08c5.41,54.47-1.96,115.18-35.78,160.28c-0.31,0.41-0.82,0.51-1.29,0.26
				c-0.41-0.21-0.62-0.72-0.46-1.18c11.69-35.63,21.47-71.72,29.24-108.33c0.67-3.14,0.57-6.13-0.21-9.06
				c-0.46-1.65-0.98-1.65-1.49-0.05l-38.92,116.36c-0.62,1.85-0.15,3.4,1.39,4.58c32.39,25.13,67.19,59.52,53.75,104.42
				c-6.69,22.4-16.42,42.84-29.19,61.42c-41.55,60.55-131.34,53.7-193.02,40.01c-0.48-0.13-83.17-20.13-112.92-25.75
				c-6-1.13-12.18-0.72-17.99,1.19c-14.75,4.85-32.62,8.91-43.97,13.74c-0.05,0.02-0.09-0.04-0.05-0.07
				c2.06-2.02,21.37-21.18,17.63-26.61c-1.29-1.88-16.63,7.83-20.81,9.47c-0.05,0.02-0.08-0.05-0.05-0.08
				c12.38-12.49,21.78-28.41,25.93-45.48c0.57-2.32-1.29-4.53-3.71-4.43c0,0-4.05-0.89-7.62-0.87c-0.23,0-0.36-0.27-0.2-0.45
				c14.75-16.64,24.02-31.23,29.99-52.35c6.64-23.53,17.01-43.32,9.49-47.67c-5-2.32-4.15-10.29-3.56-20.77L68.1,2.25
				c0.31-2.32,1.44-2.83,3.4-1.6c48.96,30.84,93.76,66.88,134.33,108.23c1.34,1.39,2.93,2.21,4.84,2.52
				c34.65,5.51,67.19,16.94,97.62,34.24c8.12,4.6,10.02,4.52,5.68-0.29c-1.73-1.91-3.64-3.63-5.69-5.19
				C301.54,135.05,283.25,121.59,268.54,114.8z M176.97,143.82L98.61,38.63c-0.94-1.26-2.87,0.05-2.04,1.39l69.25,111.41
				c2.06,3.31,6.48,4.2,9.65,1.93h0C178.56,151.16,179.23,146.86,176.97,143.82z M375.72,223.55c-21.6,12.46-37.78,34.9-30.62,61.46
				c0.62,2.42,3.5,3.55,5.7,2.26c22.89-13.87,32.37-34.56,28.42-62.02C378.88,222.99,377.7,222.42,375.72,223.55 M274.88,292.62
				c-8.19-35.12-40.08-52.74-74.55-48.37c-1.51,0.22-1.99,1.02-1.51,2.42c10.5,32.1,37.33,59.04,71.75,52.57
				C273.64,298.65,275.58,295.63,274.88,292.62 M311.77,307.15c-2.01,0.38-2.44,3.01-0.63,4.01l22.87,12.59
				c0.81,0.5,1.88,0.31,2.57-0.44l18.36-19.8c1.44-1.5,0.13-3.89-1.88-3.57L311.77,307.15L311.77,307.15z"/>
		</g>
	</g>
	<g>
		<g>
			<path class="st0" d="M487.23,262.48c1.38-14.52,2.31-25.94,2.77-34.26c0.66-11.35,1.3-26.93,1.93-46.73
				c0.62-19.8,0.94-33.76,0.94-41.88c0-2.9-0.03-7-0.1-12.28c8.78,0.2,15.74,0.3,20.89,0.3c7.19,0,15.58-0.15,25.15-0.45
				c9.57-0.3,17.79-0.45,24.65-0.45c8.25,0,14.13,0.23,17.62,0.69c4.62,0.59,8.66,1.65,12.13,3.17c3.47,1.52,6.35,3.4,8.67,5.64
				c2.57,2.64,4.59,5.81,6.04,9.5c1.65,4.23,2.47,8.75,2.47,13.56c0,3.76-0.48,7.36-1.44,10.79c-0.96,3.43-2.31,6.49-4.06,9.16
				c-1.75,2.67-3.71,4.9-5.89,6.68s-4.31,3.17-6.39,4.16c-2.08,0.99-4.87,1.98-8.37,2.97c3.5,0.59,6.3,1.27,8.42,2.03
				c2.11,0.76,4.37,1.98,6.78,3.66c2.41,1.68,4.57,3.85,6.49,6.48c1.91,2.64,3.35,5.59,4.31,8.86c0.96,3.27,1.44,6.72,1.44,10.35
				c0,5.02-0.83,9.74-2.47,14.16c-1.65,4.42-3.96,8.22-6.93,11.39c-2.51,2.71-5.78,5.02-9.8,6.93c-4.03,1.92-8.15,3.23-12.38,3.96
				c-3.43,0.53-9.69,0.92-18.76,1.19c-9.08,0.26-18.7,0.4-28.86,0.4l-26.04-0.1L487.23,262.48z M529.07,235.35h19.03
				c5.02,0,8.72-0.3,11.1-0.89c2.91-0.73,5.12-1.68,6.64-2.87c1.52-1.19,2.73-2.8,3.62-4.85c0.89-2.04,1.34-4.32,1.34-6.83
				c0-2.18-0.36-4.09-1.09-5.74c-0.73-1.65-1.82-3.04-3.27-4.16c-1.45-1.12-3.23-1.93-5.35-2.43s-5.41-0.74-9.9-0.74h-20.89
				L529.07,235.35z M531.34,180h14.08c4.62,0,7.91-0.11,9.86-0.35c1.95-0.23,3.85-0.64,5.7-1.24c1.85-0.59,3.45-1.58,4.81-2.97
				c1.36-1.39,2.31-2.94,2.87-4.65c0.56-1.72,0.84-3.43,0.84-5.15c0-2.44-0.58-4.62-1.73-6.54c-1.16-1.91-3.02-3.33-5.59-4.26
				c-2.57-0.92-6.5-1.39-11.78-1.39h-17.82L531.34,180z"/>
			<path class="st0" d="M629.3,262.48l1.77-21.3l3.83-74.01l1.08-39.83c9.19,0.13,16.09,0.2,20.72,0.2c6.01,0,12.65-0.07,19.93-0.2
				l-2.26,30.4l-3.64,74.85l-0.79,29.9c-7.07-0.07-13.45-0.1-19.13-0.1L629.3,262.48z"/>
			<path class="st0" d="M701.58,190.2c1.25-6.54,2.04-11.04,2.38-13.51c0.33-2.48,0.86-6.35,1.58-11.63
				c19.01-4.16,35.35-6.24,49.01-6.24c7.79,0,14.92,0.88,21.39,2.62c6.47,1.75,11.52,4.57,15.15,8.46c3.63,3.9,5.45,9.47,5.45,16.73
				c0,3.7-0.5,12.01-1.48,24.95c-0.99,12.94-1.75,29.9-2.27,50.89c-6.47-0.13-12.91-0.2-19.32-0.2c-6.21,0-12.81,0.07-19.81,0.2
				c0.9-7.26,1.9-22.24,2.99-44.95c-2.5,1.19-4.46,2.05-5.88,2.57c-1.42,0.53-3.9,1.32-7.46,2.38c-3.55,1.06-6.34,1.95-8.35,2.67
				c-2.01,0.73-3.75,1.65-5.24,2.77c-1.48,1.12-2.54,2.28-3.16,3.46c-0.62,1.19-0.94,2.51-0.94,3.96c0,2.24,0.89,4.16,2.67,5.74
				s4.62,2.38,8.51,2.38c1.39,0,2.87-0.11,4.46-0.35c1.58-0.23,3.76-0.81,6.53-1.73c-1.92,5.08-4.19,12.51-6.83,22.28
				c-5.68,0.92-11.06,1.39-16.14,1.39c-8.19,0-15-1.14-20.45-3.42s-9.64-5.96-12.57-11.04c-2.94-5.08-4.41-10.16-4.41-15.25
				c0-3.1,0.54-6.14,1.63-9.11c1.09-2.97,2.79-5.87,5.1-8.71c2.31-2.84,5.01-5.26,8.12-7.28c3.1-2.01,7.34-3.91,12.72-5.69
				c5.38-1.78,12.19-3.46,20.44-5.05c3.43-0.66,6.58-1.37,9.45-2.13c2.87-0.76,4.92-1.42,6.13-1.98c1.22-0.56,2.21-1.22,2.97-1.98
				c0.76-0.76,1.3-1.55,1.63-2.38c0.33-0.83,0.5-1.7,0.5-2.62c0-2.51-1.06-4.44-3.17-5.79c-2.11-1.35-5.21-2.03-9.3-2.03
				C732.29,180.6,718.27,183.8,701.58,190.2z"/>
			<path class="st0" d="M899.4,230.89c-0.33,2.64-1.12,7.49-2.38,14.55l-2.57,15.84c-10.36,2.51-20.5,3.76-30.4,3.76
				c-7.2,0-13.5-0.73-18.91-2.18c-6.4-1.72-12.14-4.75-17.23-9.11c-5.21-4.49-9.01-9.8-11.39-15.94
				c-2.84-7.19-4.26-15.25-4.26-24.16c0-8.18,1.39-16.07,4.16-23.66c2.77-7.59,6.86-13.84,12.28-18.76
				c5.41-4.92,11.42-8.22,18.02-9.9c6.6-1.68,13.89-2.52,21.88-2.52c4.69,0,9.41,0.25,14.16,0.74c4.75,0.49,10.63,1.57,17.62,3.22
				l0.2,2.28c0.2,2.38,0.35,4.8,0.45,7.28c0.1,2.48,0.31,6.39,0.64,11.73l0.59,8.81c-9.44-3.3-17.79-4.95-25.05-4.95
				c-5.21,0-9.79,1.01-13.71,3.02c-3.93,2.01-6.83,4.92-8.71,8.71c-1.88,3.8-2.82,8.2-2.82,13.22c0,5.08,0.84,9.34,2.52,12.77
				c1.68,3.43,4.37,6.01,8.07,7.72c3.7,1.72,7.75,2.57,12.18,2.57c2.24,0,4.9-0.23,7.97-0.69c3.07-0.46,5.74-0.97,8.02-1.53
				C893.01,233.15,895.9,232.21,899.4,230.89z"/>
			<path class="st0" d="M917.12,262.48c0.92-8.45,1.57-15.31,1.97-20.59c0.52-7.19,1.05-16.2,1.57-27.03l1.08-23.46
				c0.46-10.63,0.79-20.79,0.98-30.49c0.26-11.62,0.39-22.8,0.39-33.56c9.25,0.13,16.19,0.2,20.81,0.2c5.35,0,11.7-0.07,19.03-0.2
				c-1.53,17.29-2.92,38.78-4.18,64.45c-1.26,25.68-1.89,49.24-1.89,70.69c-7.65-0.13-14.11-0.2-19.39-0.2
				C931.43,262.28,924.64,262.34,917.12,262.48z M960.78,205.6l17.03-24.53l12.77-19.68c9.11,0.13,16,0.2,20.69,0.2
				c6.47,0,14.12-0.07,22.97-0.2l-19.7,25.62c-4.62,5.87-9.34,12.2-14.16,18.99c4.62,8.52,15.74,27.35,33.37,56.48
				c-7.72-0.13-14.69-0.2-20.89-0.2c-6.34,0-13.6,0.07-21.78,0.2l-6.14-12.39c-2.18-4.29-4.06-7.89-5.64-10.8
				c-0.59-1.19-5.12-9.28-13.56-24.28L960.78,205.6z"/>
			<path class="st0" d="M1053.36,190.2c1.25-6.54,2.04-11.04,2.38-13.51c0.33-2.48,0.86-6.35,1.58-11.63
				c19.01-4.16,35.35-6.24,49.01-6.24c7.79,0,14.92,0.88,21.39,2.62c6.47,1.75,11.52,4.57,15.15,8.46c3.63,3.9,5.45,9.47,5.45,16.73
				c0,3.7-0.5,12.01-1.48,24.95c-0.99,12.94-1.75,29.9-2.27,50.89c-6.47-0.13-12.91-0.2-19.32-0.2c-6.21,0-12.81,0.07-19.81,0.2
				c0.9-7.26,1.9-22.24,3-44.95c-2.5,1.19-4.46,2.05-5.88,2.57c-1.42,0.53-3.9,1.32-7.46,2.38c-3.55,1.06-6.34,1.95-8.35,2.67
				c-2.01,0.73-3.75,1.65-5.24,2.77c-1.48,1.12-2.54,2.28-3.16,3.46c-0.62,1.19-0.94,2.51-0.94,3.96c0,2.24,0.89,4.16,2.67,5.74
				c1.78,1.58,4.62,2.38,8.52,2.38c1.39,0,2.87-0.11,4.46-0.35c1.58-0.23,3.76-0.81,6.53-1.73c-1.92,5.08-4.19,12.51-6.83,22.28
				c-5.68,0.92-11.06,1.39-16.14,1.39c-8.19,0-15-1.14-20.45-3.42s-9.64-5.96-12.57-11.04c-2.94-5.08-4.41-10.16-4.41-15.25
				c0-3.1,0.54-6.14,1.63-9.11c1.09-2.97,2.79-5.87,5.1-8.71c2.31-2.84,5.01-5.26,8.12-7.28c3.1-2.01,7.34-3.91,12.72-5.69
				c5.38-1.78,12.19-3.46,20.44-5.05c3.43-0.66,6.58-1.37,9.45-2.13c2.87-0.76,4.92-1.42,6.14-1.98c1.22-0.56,2.21-1.22,2.97-1.98
				c0.76-0.76,1.3-1.55,1.63-2.38s0.5-1.7,0.5-2.62c0-2.51-1.06-4.44-3.17-5.79c-2.11-1.35-5.21-2.03-9.3-2.03
				C1084.06,180.6,1070.05,183.8,1053.36,190.2z"/>
			<path class="st0" d="M1240.48,233.37c-1.19,5.54-2.21,10.96-3.07,16.24l-2.18,12.08c-6.53,1.45-11.63,2.38-15.3,2.77
				c-3.66,0.4-7.21,0.59-10.64,0.59c-5.61,0-10.59-0.48-14.95-1.44c-4.36-0.96-7.99-2.71-10.89-5.25c-2.91-2.54-4.88-5.46-5.94-8.76
				c-1.06-3.3-1.58-6.8-1.58-10.5c0-0.66,0.03-1.83,0.1-3.51c0.06-1.68,0.29-5.43,0.69-11.24l2.17-34.26h-15.43
				c0.33-4.55,0.62-10.56,0.89-18.02l0.3-9.21h16.41c0.39-3.04,0.88-9.67,1.48-19.9l16.95-3.47c3.11-0.59,9.71-2.11,19.82-4.55
				c-0.46,8.65-0.79,17.95-0.99,27.92h22.58c-0.53,13.73-0.79,22.81-0.79,27.23h-22.78l-1.19,24.75c-0.13,3.7-0.2,6.07-0.2,7.13
				c0,3.17,0.35,5.81,1.04,7.92c0.69,2.11,1.92,3.63,3.67,4.55c1.75,0.93,3.68,1.39,5.79,1.39c1.58,0,3.24-0.11,4.95-0.35
				C1233.08,235.27,1236.12,234.56,1240.48,233.37z"/>
		</g>
		<g>
			<path class="st0" d="M751.65,329.29c4.28,0.06,8.36,0.09,12.24,0.09c6.63,0,11.82-0.03,15.57-0.09
				c-0.41,4.28-0.82,10.35-1.24,18.19c-0.42,7.85-0.68,13.77-0.77,17.77c-3.6,0.66-6.57,1.13-8.93,1.43c-2.36,0.3-5.2,0.56-8.51,0.8
				c-3.31,0.23-6.27,0.35-8.86,0.35c-4.25,0-8.43-0.34-12.52-1.03c-4.1-0.69-7.76-1.8-11-3.33c-3.24-1.53-5.93-3.61-8.09-6.24
				c-2.16-2.63-3.82-5.74-4.99-9.33c-1.17-3.59-1.76-7.31-1.76-11.16c0-6.35,1.58-12.24,4.74-17.68c3.16-5.44,7.7-9.75,13.62-12.92
				c5.92-3.17,13.57-4.76,22.95-4.76c6.85,0,14.43,0.83,22.74,2.49c0,4.56,0.2,9.64,0.61,15.24c-2.25-0.75-4.07-1.32-5.46-1.71
				c-1.39-0.39-3.02-0.75-4.88-1.08c-1.86-0.33-3.63-0.57-5.3-0.73c-1.67-0.16-3.17-0.23-4.48-0.23c-3.44,0-6.69,0.49-9.75,1.48
				c-3.06,0.98-5.7,2.5-7.9,4.55c-2.2,2.05-3.85,4.49-4.95,7.34c-1.09,2.84-1.64,5.85-1.64,9c0,3.22,0.62,6.09,1.88,8.6
				c1.25,2.52,3.24,4.43,5.96,5.74c2.72,1.31,5.75,1.97,9.1,1.97c2.78,0,5.83-0.41,9.14-1.22l0.53-10.17
				c-2.04-0.09-3.24-0.14-3.62-0.14l-4.98,0.05l0.33-5.77c0.03-0.62,0.08-1.52,0.14-2.7C751.61,332.93,751.65,331.32,751.65,329.29z
				"/>
			<path class="st0" d="M788.31,366.62l1.45-20.82l0.47-11.96c0.03-2.16,0.05-4.36,0.05-6.61c0-2.28-0.03-5.11-0.09-8.49
				c3.78,0.06,6.78,0.09,9,0.09c2.6,0,5.58-0.03,8.96-0.09l-0.2,5.3c1.22-1.38,2.22-2.4,3-3.07c0.78-0.67,1.67-1.28,2.67-1.83
				c1-0.55,2.05-0.95,3.14-1.22c1.09-0.27,2.24-0.4,3.42-0.4c1.13,0,2.38,0.16,3.75,0.47c0.03,3.41,0.11,6.22,0.23,8.44l0.33,7.22
				c-1.72-0.5-3.33-0.75-4.83-0.75c-1.87,0-3.49,0.27-4.85,0.82c-1.36,0.55-2.56,1.38-3.61,2.49c-1.05,1.11-1.88,2.49-2.51,4.15
				c-0.62,1.66-1.06,4.28-1.31,7.88c-0.25,3.6-0.37,7.71-0.37,12.33c0,1.63,0.06,3.64,0.19,6.05c-3.03-0.06-6.08-0.09-9.15-0.09
				C795.04,366.52,791.79,366.55,788.31,366.62z"/>
			<path class="st0" d="M834.03,332.39c0.59-3.09,0.97-5.23,1.12-6.4c0.16-1.17,0.41-3.01,0.75-5.51c9-1.97,16.74-2.95,23.21-2.95
				c3.69,0,7.07,0.41,10.13,1.24c3.06,0.83,5.46,2.17,7.18,4.01c1.72,1.84,2.58,4.49,2.58,7.92c0,1.75-0.23,5.69-0.7,11.82
				s-0.83,14.16-1.08,24.1c-3.07-0.06-6.12-0.09-9.15-0.09c-2.94,0-6.07,0.03-9.38,0.09c0.43-3.44,0.9-10.53,1.42-21.29
				c-1.19,0.56-2.11,0.97-2.78,1.22c-0.67,0.25-1.85,0.62-3.53,1.12c-1.68,0.5-3,0.92-3.95,1.27c-0.95,0.34-1.78,0.78-2.48,1.31
				c-0.7,0.53-1.2,1.08-1.5,1.64c-0.3,0.56-0.44,1.19-0.44,1.88c0,1.06,0.42,1.97,1.27,2.72c0.84,0.75,2.19,1.12,4.03,1.12
				c0.66,0,1.36-0.05,2.11-0.16c0.75-0.11,1.78-0.38,3.09-0.82c-0.91,2.41-1.99,5.92-3.24,10.55c-2.69,0.44-5.24,0.66-7.64,0.66
				c-3.88,0-7.1-0.54-9.68-1.62c-2.58-1.08-4.56-2.82-5.96-5.23c-1.39-2.41-2.09-4.81-2.09-7.22c0-1.47,0.26-2.91,0.77-4.31
				c0.52-1.41,1.32-2.78,2.41-4.13c1.09-1.34,2.37-2.49,3.84-3.45c1.47-0.95,3.48-1.85,6.02-2.7c2.55-0.84,5.77-1.64,9.68-2.39
				c1.62-0.31,3.12-0.65,4.48-1.01c1.36-0.36,2.33-0.67,2.91-0.94c0.58-0.26,1.05-0.58,1.41-0.94c0.36-0.36,0.62-0.73,0.77-1.13
				c0.16-0.39,0.23-0.8,0.23-1.24c0-1.19-0.5-2.1-1.5-2.74c-1-0.64-2.47-0.96-4.41-0.96C848.57,327.84,841.93,329.35,834.03,332.39z
				"/>
			<path class="st0" d="M886.36,388.56c0.59-6.41,1.09-12.8,1.5-19.18c0.72-10.91,1.21-20.06,1.47-27.45
				c0.27-7.39,0.4-14.71,0.4-21.97c6.35-0.97,11.32-1.62,14.91-1.95c3.59-0.33,7.19-0.49,10.79-0.49c4.5,0,8.64,0.47,12.43,1.41
				c3.78,0.94,6.82,2.59,9.12,4.97s4.03,5.2,5.18,8.49s1.74,6.72,1.74,10.32c0,3.28-0.47,6.46-1.41,9.54s-2.37,5.85-4.31,8.32
				c-1.94,2.47-4.16,4.3-6.68,5.49c-2.51,1.19-5.32,1.78-8.41,1.78c-1.53,0-3.12-0.15-4.75-0.45s-3.19-0.73-4.66-1.29
				c-1.47-0.56-2.69-1.13-3.68-1.71c-0.98-0.58-2.21-1.41-3.68-2.51l-0.52,13.08c-0.22,6-0.33,10.53-0.33,13.6
				c-3.63-0.06-6.75-0.09-9.34-0.09C893.87,388.47,890.62,388.5,886.36,388.56z M907.97,331.92c-0.25,1.41-0.43,2.56-0.52,3.45
				c-0.09,0.89-0.19,2.09-0.28,3.61c-0.09,1.52-0.14,2.73-0.14,3.63c0,2.56,0.4,4.71,1.2,6.45c0.8,1.73,1.91,3.08,3.33,4.03
				c1.42,0.95,2.95,1.43,4.57,1.43c1.72,0,3.3-0.49,4.74-1.48c1.44-0.99,2.58-2.46,3.42-4.43c0.84-1.97,1.27-4.19,1.27-6.66
				c0-3.34-0.88-6.03-2.65-8.06c-1.77-2.03-4.34-3.05-7.71-3.05C913.07,330.84,910.66,331.2,907.97,331.92z"/>
			<path class="st0" d="M950.55,366.62c0.5-4.66,0.86-8.49,1.08-11.49c0.44-6.28,0.89-13.58,1.37-21.9
				c0.28-5.5,0.49-10.79,0.63-15.85c0.14-5.06,0.21-9.99,0.21-14.77c3.97,0.06,7.2,0.09,9.7,0.09c3.37,0,6.56-0.03,9.56-0.09
				l-0.97,11.35c-0.15,1.88-0.4,5.67-0.74,11.39c1.03-1.31,1.87-2.29,2.53-2.93c0.66-0.64,1.38-1.23,2.18-1.78
				c0.8-0.55,1.61-1.01,2.44-1.38c0.83-0.38,1.78-0.7,2.86-0.98s2.26-0.5,3.56-0.66s2.63-0.23,4.01-0.23c2.65,0,5.22,0.3,7.71,0.89
				c2.48,0.59,4.6,1.63,6.35,3.12c1.75,1.49,2.94,3.14,3.56,4.97c0.62,1.83,0.94,3.84,0.94,6.02c0,0.84-0.02,1.96-0.07,3.35
				c-0.05,1.39-0.15,3.15-0.3,5.28l-1.03,15.8c-0.12,1.97-0.19,3.6-0.21,4.9c-0.02,1.3-0.02,2.93-0.02,4.9
				c-3.25-0.06-6.36-0.09-9.33-0.09c-3.35,0-6.74,0.03-10.18,0.09c0.53-4.16,0.99-8.95,1.4-14.37c0.4-5.42,0.6-9.46,0.6-12.12
				c0-2.94-0.62-5-1.85-6.19c-1.24-1.19-2.87-1.78-4.9-1.78c-1.82,0-3.43,0.38-4.83,1.13c-1.25,0.66-2.35,1.67-3.29,3.05
				c-0.81,1.16-1.49,2.83-2.02,5.02c-0.63,2.66-1.11,6.58-1.46,11.77c-0.18,2.88-0.37,7.38-0.55,13.5c-3.15-0.06-6.1-0.09-8.85-0.09
				C957.84,366.52,954.48,366.55,950.55,366.62z"/>
		</g>
	</g>
</g>
</svg>
